<?xml version="1.0" encoding="UTF-8"?>
<svg id="_ロゴ" data-name="ロゴ" xmlns="http://www.w3.org/2000/svg" viewBox="0 0 285 90">
  <defs>
    <style>
      .cls-1 {
        fill: none;
      }

      .cls-2 {
        fill: #ff9739;
      }

      .cls-3 {
        fill: #365bad;
      }

      .cls-4 {
        fill: #fff;
      }

      .cls-5 {
        fill: #8bdb4d;
      }

      .cls-6 {
        fill: #cdb4fc;
      }

      .cls-7 {
        fill: #9fbdff;
      }

      .cls-8 {
        fill: #07bfd8;
      }

      .cls-9 {
        fill: #120c93;
      }
    </style>
  </defs>
  <g>
    <path class="cls-4" d="M115.27,61.51l-6.79-12.67h-3.56v12.67h-7.12V28.29h9.82c8.78,0,12.81,3.8,12.81,10.2,0,7.26-5.17,9.02-5.17,9.02l8.35,14h-8.35ZM108.1,42.72c3.42,0,4.84-1.52,4.84-4.22,0-2.52-1.23-4.04-4.84-4.04h-3.18v8.26h3.18Z"/>
    <path class="cls-4" d="M139.57,61.51l-.47-2.94c-1.57,2.56-3.7,3.51-6.12,3.51-4.22,0-7.02-2.85-7.02-7.59v-14.52h6.83v12.39c0,1.9.29,3.8,2.85,3.8s3.46-1.9,3.46-5.03v-11.15h6.83v21.55h-6.36Z"/>
    <path class="cls-4" d="M156.41,52.5c-2.99-1.14-5.69-2.89-5.69-6.55,0-4.04,3.32-6.55,8.92-6.55,6.22,0,8.64,3.09,8.64,3.09l-2.56,3.99s-1.76-2.42-5.69-2.42c-2.28,0-2.7.81-2.7,1.52,0,.76.43,1.19,3.46,2.33l1.9.71c2.9,1.09,5.79,2.99,5.79,6.74,0,3.94-3.23,6.74-9.11,6.74-7.02,0-9.44-3.94-9.44-3.94l3.18-3.7s1.8,2.8,5.84,2.8c1.47,0,2.99-.38,2.99-1.52s-1.38-1.66-3.51-2.47l-1.99-.76Z"/>
    <path class="cls-4" d="M187.22,60c-.85.71-2.89,2.09-6.22,2.09-4.08,0-6.79-2.09-6.79-6.84v-10.06h-2.75v-5.22h2.75v-6.36h6.83v6.36h4.94v5.22h-4.94v8.64c0,2.28,1.23,2.75,2.47,2.75.76,0,1.42-.19,2.18-.66l1.52,4.08Z"/>
    <path class="cls-4" d="M207.06,62.27c-11.72,0-17.32-8.26-17.32-17.28s5.6-17.27,17.32-17.27,17.32,8.26,17.32,17.27-5.6,17.28-17.32,17.28ZM216.83,45c0-5.55-3.46-10.63-9.78-10.63s-9.78,5.08-9.78,10.63,3.46,10.63,9.78,10.63,9.78-5.08,9.78-10.63Z"/>
    <path class="cls-4" d="M247.78,61.51l-3.7-12.81-3.7,12.81h-6.98l-6.88-21.55h7.26l3.7,13.95,3.94-13.95h5.32l3.94,13.95,3.7-13.95h7.26l-6.88,21.55h-6.98Z"/>
    <path class="cls-4" d="M264.68,61.51V28.29h6.83v33.22h-6.83Z"/>
  </g>
  <g>
    <path class="cls-7" d="M49.27,13.87c-17.19,0-31.13,13.94-31.13,31.13,0,1.42.1,2.81.29,4.17,2.04,15.22,15.06,26.96,30.84,26.96s28.8-11.74,30.84-26.96c.18-1.37.29-2.76.29-4.17,0-17.19-13.94-31.13-31.13-31.13Z"/>
    <path class="cls-1" d="M79.87,39.28c-.01-.08-.03-.15-.04-.23.01.07.03.15.04.22,0,0,0,0,0,0Z"/>
    <path class="cls-1" d="M18.66,39.33s0,0,0,0c0,0,0,.02,0,.03,0,0,0,0,0,0,0,0,0-.01,0-.02Z"/>
    <path class="cls-1" d="M19.96,34.49s0,.02-.01.04c.02,0,.04,0,.06,0-.02-.01-.03-.02-.05-.03Z"/>
    <path class="cls-6" d="M67,55.9c-.66.49-1.37.91-2.12,1.27-1.77.84-3.66,1.27-5.63,1.27s-3.91-.43-5.68-1.29c-.56-.27-1.24-.04-1.51.53-.27.56-.04,1.24.53,1.51,2.08,1.01,4.33,1.52,6.67,1.52s4.53-.5,6.6-1.49c.87-.41,1.7-.91,2.48-1.49.5-.37.61-1.08.24-1.58-.37-.5-1.08-.61-1.58-.24Z"/>
    <path class="cls-2" d="M71.5,52.79c-.25-.2-.69-.35-1.13-.16-.17.07-.33.18-.46.34-.02.02-.03.04-.05.06-.16.19-.24.42-.26.65-.04.46.23.83.45.99.2.15.44.22.67.22.34,0,.69-.15.91-.44.03-.04.06-.09.09-.13.05-.08.1-.17.13-.26.2-.54-.07-1.03-.35-1.26Z"/>
    <path class="cls-5" d="M69.11,33.53c-.48-.4-1.19-.34-1.59.14-.4.48-.34,1.19.14,1.59,2.99,2.5,4.71,6.17,4.71,10.06,0,.62.51,1.13,1.13,1.13s1.13-.51,1.13-1.13c0-4.56-2.01-8.85-5.52-11.79Z"/>
    <path class="cls-8" d="M59.25,32.21c1.2,0,2.38.16,3.52.48.1.03.2.04.3.04.49,0,.95-.33,1.09-.83.17-.6-.18-1.22-.78-1.39-1.34-.37-2.73-.56-4.13-.56-.62,0-1.13.51-1.13,1.13s.51,1.13,1.13,1.13Z"/>
    <path class="cls-6" d="M39.28,32.21c1.68,0,3.31.31,4.85.92,1.62.65,3.08,1.6,4.34,2.85.22.22.51.32.79.32s.57-.11.79-.32c1.2-1.18,2.57-2.1,4.09-2.74.57-.24.84-.91.6-1.48-.24-.57-.91-.84-1.48-.6-1.46.62-2.8,1.45-4,2.48-1.29-1.11-2.73-1.98-4.3-2.61-1.81-.72-3.72-1.09-5.69-1.09-.62,0-1.13.51-1.13,1.13s.51,1.13,1.13,1.13Z"/>
    <path class="cls-2" d="M33.97,32.06c-.28-.56-.96-.79-1.52-.51-.46.23-.91.48-1.34.75-1.45.91-2.71,2.03-3.76,3.32-.34.41-.65.84-.94,1.29-.68,1.04-1.24,2.17-1.65,3.35-.55,1.6-.85,3.3-.85,5.06,0,.62.51,1.13,1.13,1.13s1.13-.51,1.13-1.13c0-5.01,2.79-9.51,7.29-11.75.56-.28.79-.96.51-1.52Z"/>
    <path class="cls-5" d="M34.39,57.49c-2.93-1.18-5.35-3.39-6.79-6.21-.28-.56-.97-.78-1.52-.49-.56.28-.78.97-.49,1.52,1.69,3.31,4.52,5.89,7.96,7.28.14.06.28.08.42.08.45,0,.87-.27,1.05-.71.23-.58-.05-1.24-.63-1.47Z"/>
    <path class="cls-8" d="M45.32,56.97c-1.84.96-3.93,1.47-6.04,1.47-.62,0-1.13.51-1.13,1.13s.51,1.13,1.13,1.13c2.47,0,4.92-.6,7.08-1.72.55-.29.77-.97.48-1.52-.29-.55-.97-.77-1.52-.48Z"/>
    <path class="cls-7" d="M59.25,35.15c-2.72,0-5.27,1.06-7.2,2.99-.74.74-1.74,1.16-2.79,1.16s-2.05-.42-2.79-1.16c-1.92-1.93-4.48-2.99-7.2-2.99-5.61,0-10.17,4.56-10.17,10.17s4.56,10.17,10.17,10.17c2.71,0,5.27-1.06,7.2-2.99.13-.13.27-.24.41-.35-.28-1.08-.16-2.22.36-3.22.85-1.65,3.2-1.65,4.05,0h0c.51,1,.63,2.15.36,3.22.14.11.28.22.41.35,1.93,1.93,4.48,2.99,7.2,2.99,5.61,0,10.17-4.56,10.17-10.17s-4.56-10.17-10.17-10.17ZM39.72,50.09c-2.63,0-4.77-2.13-4.77-4.77s2.13-4.77,4.77-4.77,4.77,2.13,4.77,4.77-2.13,4.77-4.77,4.77ZM58.81,50.09c-2.63,0-4.77-2.13-4.77-4.77s2.13-4.77,4.77-4.77,4.77,2.13,4.77,4.77-2.13,4.77-4.77,4.77Z"/>
    <path class="cls-9" d="M51.29,48.93h0c-.85-1.65-3.2-1.65-4.05,0-.51,1-.63,2.15-.36,3.22.05.2.11.4.19.59l1.33,3.26c.31.77,1.41.77,1.72,0l1.33-3.26c.08-.19.14-.39.19-.59.28-1.08.16-2.22-.36-3.22Z"/>
    <path class="cls-4" d="M39.72,40.55c-2.63,0-4.77,2.13-4.77,4.77s2.13,4.77,4.77,4.77,4.77-2.13,4.77-4.77-2.13-4.77-4.77-4.77ZM39.72,48.34c-1.66,0-3.01-1.35-3.01-3.01s1.35-3.01,3.01-3.01,3.01,1.35,3.01,3.01-1.35,3.01-3.01,3.01Z"/>
    <circle class="cls-9" cx="39.72" cy="45.32" r="3.01"/>
    <path class="cls-4" d="M58.81,40.55c-2.63,0-4.77,2.13-4.77,4.77s2.13,4.77,4.77,4.77,4.77-2.13,4.77-4.77-2.13-4.77-4.77-4.77ZM58.81,48.34c-1.66,0-3.01-1.35-3.01-3.01s1.35-3.01,3.01-3.01,3.01,1.35,3.01,3.01-1.35,3.01-3.01,3.01Z"/>
    <circle class="cls-9" cx="58.81" cy="45.32" r="3.01"/>
    <path class="cls-3" d="M80.38,44.06c0-.09,0-.17,0-.26,0-.23-.02-.47-.03-.7,0-.09-.01-.18-.02-.27-.02-.26-.04-.52-.06-.78,0-.05,0-.09-.01-.14-.03-.32-.07-.64-.11-.96,0,0,0,0,0-.01-.04-.31-.09-.61-.13-.92,0-.05-.02-.1-.02-.15-.03-.2-.07-.4-.11-.6,0,0,0,0,0,0-.01-.07-.03-.15-.04-.22,0-.03-.01-.07-.02-.1-.13-.64-.27-1.27-.43-1.89-5.09-7.69-13.15-13.3-22.58-15.28-2.41-.59-4.93-.9-7.52-.9s-5.11.31-7.52.9c-4.62.97-8.92,2.81-12.69,5.34-.75.45-1.48.77-2.13.98-1.22.3-2.67.57-4.25.71-1.95.17-4.09.13-6.25-.33-.93-.2-1.63.82-1.09,1.6.93,1.33,2.42,3,4.62,4.41.02.01.03.02.05.03-.02,0-.04,0-.06,0-1.4.16-3.19.15-5.46-.17-.84-.12-1.32.97-.74,1.59,1.05,1.13,2.73,2.48,4.91,3.37,0,0,0,0,0,0,0,0,0,.01,0,.02,0,0,0,0,0,0-.03.18-.06.35-.09.53,0,.05-.02.1-.02.14-.05.31-.09.61-.13.92h0c-.04.33-.08.65-.11.97,0,.05,0,.09-.01.14-.02.26-.05.52-.06.78,0,.09-.01.18-.02.27-.01.23-.02.46-.03.69,0,.09,0,.17,0,.26,0,.31-.02.62-.02.94,0,.38,0,.75.02,1.12.04.98.12,1.95.25,2.9,0,.05.01.1.02.15.16,1.19.39,2.36.68,3.5.06.23.12.46.18.68.13.45.26.9.41,1.35.22.67.46,1.32.72,1.97.32.79.67,1.56,1.05,2.32.07.14.14.28.21.42,1.46,2.79,3.32,5.33,5.52,7.54,0,0,0,0,0,0,.31.31.63.62.95.92.03.02.05.05.08.07.3.27.6.54.91.8.23.2.47.4.71.59.28.22.56.44.84.65.29.21.58.42.87.62.25.18.51.35.77.51.45.29.91.58,1.38.85,4.58,2.65,9.89,4.16,15.56,4.16,1.62,0,3.22-.13,4.77-.37,9.55-1.47,17.67-7.28,22.27-15.36.11-.2.23-.4.34-.6.22-.41.43-.82.63-1.23.4-.83.77-1.68,1.1-2.55.16-.44.32-.88.47-1.32.22-.67.41-1.34.59-2.03.29-1.14.52-2.31.68-3.5,0-.06.01-.13.02-.19.12-.94.2-1.89.24-2.85.01-.37.02-.75.02-1.12,0-.31,0-.63-.02-.94ZM64.17,31.91c-.14.5-.59.83-1.09.83-.1,0-.2-.01-.3-.04-1.14-.32-2.33-.48-3.52-.48-.62,0-1.13-.51-1.13-1.13s.51-1.13,1.13-1.13c1.4,0,2.79.19,4.13.56.6.17.95.79.78,1.39ZM44.97,31.04c1.57.63,3.01,1.5,4.3,2.61,1.21-1.03,2.55-1.87,4-2.48.58-.24,1.24.03,1.48.6.24.57-.03,1.24-.6,1.48-1.52.64-2.9,1.57-4.09,2.74-.22.22-.51.32-.79.32s-.57-.11-.79-.32c-1.26-1.24-2.72-2.2-4.34-2.85-1.54-.61-3.17-.92-4.85-.92-.62,0-1.13-.51-1.13-1.13s.51-1.13,1.13-1.13c1.97,0,3.88.37,5.69,1.09ZM23.91,45.32c0-1.76.3-3.47.85-5.06.41-1.19.96-2.31,1.65-3.35.29-.44.61-.87.94-1.29,1.05-1.29,2.31-2.41,3.76-3.32.43-.27.88-.52,1.34-.75.56-.28,1.24-.05,1.52.51.28.56.05,1.24-.51,1.52-4.5,2.24-7.29,6.74-7.29,11.75,0,.62-.51,1.13-1.13,1.13s-1.13-.51-1.13-1.13ZM35.02,58.96c-.18.44-.6.71-1.05.71-.14,0-.28-.03-.42-.08-3.44-1.39-6.26-3.97-7.96-7.28-.28-.56-.06-1.24.49-1.52.56-.28,1.24-.06,1.52.49,1.45,2.82,3.86,5.03,6.79,6.21.58.23.86.89.63,1.47ZM46.36,58.97c-2.17,1.13-4.61,1.72-7.08,1.72-.62,0-1.13-.51-1.13-1.13s.51-1.13,1.13-1.13c2.11,0,4.19-.51,6.04-1.47.55-.29,1.24-.07,1.52.48.29.55.07,1.24-.48,1.52ZM68.33,57.72c-.78.57-1.61,1.07-2.48,1.49-2.07.99-4.29,1.49-6.6,1.49s-4.58-.51-6.67-1.52c-.56-.27-.8-.95-.53-1.51.27-.56.95-.8,1.51-.53,1.77.86,3.69,1.29,5.68,1.29s3.86-.43,5.63-1.27c.74-.35,1.45-.78,2.12-1.27.5-.37,1.21-.26,1.58.24.37.5.26,1.21-.24,1.58ZM59.25,55.5c-2.72,0-5.27-1.06-7.2-2.99-.13-.13-.27-.24-.41-.35-.05.2-.11.4-.19.59l-1.33,3.26c-.31.77-1.41.77-1.72,0l-1.33-3.26c-.08-.19-.14-.39-.19-.59-.14.11-.28.22-.41.35-1.92,1.93-4.48,2.99-7.2,2.99-5.61,0-10.17-4.56-10.17-10.17s4.56-10.17,10.17-10.17c2.71,0,5.27,1.06,7.2,2.99.74.74,1.74,1.16,2.79,1.16s2.05-.42,2.79-1.16c1.93-1.93,4.48-2.99,7.2-2.99,5.61,0,10.17,4.56,10.17,10.17s-4.56,10.17-10.17,10.17ZM71.85,54.05c-.03.09-.07.17-.13.26-.03.04-.06.09-.09.13-.23.29-.57.44-.91.44-.24,0-.47-.07-.67-.22-.21-.16-.49-.52-.45-.99.01-.23.1-.46.26-.65.02-.02.03-.04.05-.06.13-.15.29-.27.46-.34.44-.18.88-.04,1.13.16.28.23.55.71.35,1.26ZM73.49,46.45c-.62,0-1.13-.51-1.13-1.13,0-3.89-1.72-7.55-4.71-10.06-.48-.4-.54-1.11-.14-1.59.4-.48,1.11-.54,1.59-.14,3.51,2.94,5.52,7.23,5.52,11.79,0,.62-.51,1.13-1.13,1.13Z"/>
  </g>
</svg>